<svg xmlns="http://www.w3.org/2000/svg" version="1.1" xmlns:xlink="http://www.w3.org/1999/xlink" xmlns:svgjs="http://svgjs.dev/svgjs" width="1000" height="156" viewBox="0 0 1000 156"><g transform="matrix(1,0,0,1,-0.6060499502503376,0.13836697283370825)"><svg viewBox="0 0 396 62" data-background-color="#ffffff" preserveAspectRatio="xMidYMid meet" height="156" width="1000" xmlns="http://www.w3.org/2000/svg" xmlns:xlink="http://www.w3.org/1999/xlink"><g id="tight-bounds" transform="matrix(1,0,0,1,0.23999578029912527,-0.05499158489200795)"><svg viewBox="0 0 395.52 62.10998358691566" height="62.10998358691566" width="395.52"><g><svg viewBox="0 0 524.8167254723884 82.41393154639175" height="62.10998358691566" width="395.52"><g><rect width="5.377838927663505" height="59.93198350515462" x="109.84077416864241" y="11.240974020618566" fill="#152232" opacity="1" stroke-width="0" stroke="transparent" fill-opacity="1" class="rect-o-0" data-fill-palette-color="primary" rx="1%" id="o-0" data-palette-color="#152232"></rect></g><g transform="matrix(1,0,0,1,129.2967254723884,11.390058556701035)"><svg viewBox="0 0 395.52 59.63381443298968" height="59.63381443298968" width="395.52"><g id="textblocktransform"><svg viewBox="0 0 395.52 59.63381443298968" height="59.63381443298968" width="395.52" id="textblock"><g><svg viewBox="0 0 395.52 59.63381443298968" height="59.63381443298968" width="395.52"><g transform="matrix(1,0,0,1,0,0)"><svg width="395.52" viewBox="1.350000023841858 -34.099998474121094 236.2899932861328 35.099998474121094" height="59.63381443298968" data-palette-color="#152232"><g class="undefined-text-0" data-fill-palette-color="primary" id="text-0"><path d="M18.7-11.9L13-11.85 13-3.4 19-2.55 18.95 0 1.65 0 1.35-1.6Q2.9-2.55 5.4-3.6L5.4-3.6 5.4-29.9 1.7-30.35 1.75-32.9 17.9-33.3Q23.7-33.3 27.28-30.23 30.85-27.15 30.85-22.45L30.85-22.45Q30.85-18 27.45-15 24.05-12 18.7-11.9L18.7-11.9ZM19.95-29.4L13-28.65 13-16.3Q15-15.9 16.85-15.9L16.85-15.9Q19.9-15.9 21.45-17.82 23-19.75 23-22.55L23-22.55Q23-24.7 22.2-26.65 21.4-28.6 19.95-29.4L19.95-29.4ZM62.55-2.95L65.75-2.55 65.7 0 55.7 0 48.9-12.75 44.75-12.7 44.75-3.2 49.25-2.55 49.2 0 33.2 0 32.9-1.6Q34.35-2.55 37.15-3.65L37.15-3.65 37.15-29.9 33.45-30.35 33.5-32.9 49.45-33.3Q55.2-33.3 58.87-30.4 62.55-27.5 62.55-23.15L62.55-23.15Q62.55-20.2 60.75-17.68 58.95-15.15 55.85-13.85L55.85-13.85 62.55-2.95ZM44.75-28.65L44.75-16.9Q46.45-16.55 48-16.55L48-16.55Q51.55-16.55 53.12-18.35 54.7-20.15 54.7-23L54.7-23Q54.7-27.4 51.7-29.4L51.7-29.4 44.75-28.65ZM79.35-3.2L83.95-2.55 83.9 0 67.8 0 67.5-1.6Q68.95-2.55 71.75-3.65L71.75-3.65 71.75-29.8 67.9-30.35 67.95-32.9 83.25-32.9 83.55-31.3Q81.7-30.2 79.35-29.25L79.35-29.25 79.35-3.2ZM126.99-3.3L131.69-2.35 131.64 0 115.74 0 115.44-1.6Q116.89-2.55 119.69-3.65L119.69-3.65 119.54-17.1 120.24-25.65 110.99-0.8 105.24 0.35 95.94-25.4 96.74-17.1 96.49-3.2 100.69-2.35 100.64 0 86.84 0 86.54-1.6Q88.19-2.6 90.99-3.75L90.99-3.75 91.69-29.3 87.59-30.15 87.64-32.5 100.84-32.5 100.79-32.45 109.64-7.8 118.69-32.5 130.34-32.5 130.64-30.9Q129.04-29.9 126.54-28.9L126.54-28.9 126.99-3.3ZM149.69-33.9L149.69-33.9Q156.84-33.9 161.44-28.93 166.04-23.95 166.04-16L166.04-16Q166.04-8.35 161.56-3.68 157.09 1 150.09 1L150.09 1Q142.89 1 138.29-3.75 133.69-8.5 133.69-16.25L133.69-16.25Q133.69-24.05 138.22-28.98 142.74-33.9 149.69-33.9ZM145.39-28.8L145.39-28.8Q143.74-27.4 142.72-24.25 141.69-21.1 141.69-17.15L141.69-17.15Q141.69-11.1 144.09-7.25 146.49-3.4 150.94-3.4L150.94-3.4Q152.09-3.4 153.79-3.85L153.79-3.85Q155.69-5.35 156.84-8.6 157.99-11.85 157.99-15.85L157.99-15.85Q157.99-21.9 155.54-25.7 153.09-29.5 149.04-29.5L149.04-29.5Q147.34-29.5 145.39-28.8ZM197.69-2.95L200.89-2.55 200.84 0 190.84 0 184.04-12.75 179.89-12.7 179.89-3.2 184.39-2.55 184.34 0 168.34 0 168.04-1.6Q169.49-2.55 172.29-3.65L172.29-3.65 172.29-29.9 168.59-30.35 168.64-32.9 184.59-33.3Q190.34-33.3 194.01-30.4 197.69-27.5 197.69-23.15L197.69-23.15Q197.69-20.2 195.89-17.68 194.09-15.15 190.99-13.85L190.99-13.85 197.69-2.95ZM179.89-28.65L179.89-16.9Q181.59-16.55 183.14-16.55L183.14-16.55Q186.69-16.55 188.26-18.35 189.84-20.15 189.84-23L189.84-23Q189.84-27.4 186.84-29.4L186.84-29.4 179.89-28.65ZM234.09-3.05L237.64-2.55 237.59 0 221.84 0 221.54-1.6Q222.94-2.45 225.89-3.7L225.89-3.7 223.79-9.1 211.89-9.1 209.69-3.2 214.28-2.55 214.24 0 200.64 0 200.34-1.6Q201.84-2.55 204.49-3.6L204.49-3.6 215.53-30.75 214.94-32.3 221.49-34.1 234.09-3.05ZM213.34-12.9L222.34-12.9 217.84-24.7 213.34-12.9Z" fill="#152232" data-fill-palette-color="primary"></path></g></svg></g></svg></g></svg></g></svg></g><g><svg viewBox="0 0 95.76266179255994 82.41393154639175" height="82.41393154639175" width="95.76266179255994"><g><svg xmlns="http://www.w3.org/2000/svg" xmlns:xlink="http://www.w3.org/1999/xlink" version="1.1" x="0" y="0" viewBox="17 21.600000381469727 66 56.80000305175781" style="enable-background:new 0 0 100 100;" xml:space="preserve" height="82.41393154639175" width="95.76266179255994" class="icon-icon-0" data-fill-palette-color="accent" id="icon-0"><g fill="#5ebc67" data-fill-palette-color="accent"><path d="M44.6 58.8c0-1.2-1-2.2-2.2-2.2H19.2c-1.2 0-2.2 1-2.2 2.2v19.6h27.7V58.8z" fill="#5ebc67" data-fill-palette-color="accent"></path><path d="M83 23.9c0-1.3-1-2.3-2.3-2.3H51.3c-1.3 0-2.3 1-2.3 2.3v54.4h34V23.9zM58 55.4c-2 0-3.6-1.6-3.6-3.6 0-2 1.6-3.6 3.6-3.6 2 0 3.6 1.6 3.6 3.6C61.5 53.8 59.9 55.4 58 55.4z" fill="#5ebc67" data-fill-palette-color="accent"></path><path d="M25.4 51.7c-0.2 0.7 0.3 1.4 1.1 1.4h8.7c0.8 0 1.3-0.7 1.1-1.4-0.3-1.1-0.7-2.3-1.2-3.4h6l-4.7-14.4H25.3l-4.7 14.4h6C26.1 49.4 25.7 50.5 25.4 51.7z" fill="#5ebc67" data-fill-palette-color="accent"></path></g></svg></g></svg></g></svg></g><defs></defs></svg><rect width="395.52" height="62.10998358691566" fill="none" stroke="none" visibility="hidden"></rect></g></svg></g></svg>